<?xml version="1.0" encoding="utf-8"?>
<!-- Generator: Adobe Illustrator 22.1.0, SVG Export Plug-In . SVG Version: 6.00 Build 0)  -->
<svg version="1.1" id="Capa_1" xmlns="http://www.w3.org/2000/svg" xmlns:xlink="http://www.w3.org/1999/xlink" x="0px" y="0px"
	 viewBox="0 0 512 512" style="enable-background:new 0 0 512 512;" xml:space="preserve">
<style type="text/css">
	.st0{fill:#FAB5BE;}
</style>
<g>
	<g>
		<path class="st0" d="M40.5,98l184.4,146.1c8.4,6.6,19.9,9.6,31.1,9c11.2,0.6,22.7-2.4,31.1-9L471.5,98
			c14.8-11.6,11.4-21.2-7.3-21.2H256H47.9C29.1,76.8,25.7,86.3,40.5,98z"/>
		<path class="st0" d="M484.8,136.5l-201.5,153c-7.5,5.7-17.4,8.4-27.2,8.3c-9.9,0.1-19.7-2.6-27.3-8.3l-201.6-153
			C12.2,125.2,0,131.3,0,150v251c0,18.8,15.4,34.1,34.1,34.1H256h221.9c18.8,0,34.1-15.4,34.1-34.1V150
			C512,131.3,499.8,125.2,484.8,136.5z"/>
	</g>
</g>
</svg>
